<svg width="300" height="301" viewBox="0 0 300 301" fill="none" xmlns="http://www.w3.org/2000/svg">
<rect width="300" height="300" rx="20" fill="#FCDDEC"/>
<mask id="mask0_22_376" style="mask-type:alpha" maskUnits="userSpaceOnUse" x="0" y="1" width="300" height="300">
<rect y="1" width="300" height="300" rx="20" fill="#FCDDEC"/>
</mask>
<g mask="url(#mask0_22_376)">
<path d="M327.195 301.027C342.543 277.95 380.434 148.637 355.688 133.585C328.5 117.049 306.651 144.611 285.287 122.723C275.969 113.177 283.669 89.4874 264.41 81.7059C237.357 70.7764 169.57 111.86 180.251 81.5459C190.932 51.2315 118.265 30.3151 48.9574 34.3322C-20.3506 38.3494 -7.47898 79.4397 -6.51972 86.0864C-5.56046 92.7331 4.65244 124.83 -34.837 139.583C-74.3265 154.337 -65.2631 174.44 -61.3765 185.95C-57.9935 195.976 -38.8803 207.838 -66.7164 233.777C-89.8984 255.374 -71.7317 290.027 -64.9993 301.027H327.195Z" fill="#B4B4D2"/>
<g style="mix-blend-mode:multiply" opacity="0.5">
<path d="M-36.187 140.124L-36.861 140.386L-37.2203 140.53L-37.8352 140.776L-38.1945 140.923L-38.8061 141.177L-39.1351 141.314C-39.3683 141.412 -39.5993 141.511 -39.8282 141.61L-40.0502 141.704L-40.9525 142.099L-41.1122 142.17C-41.3534 142.279 -41.5913 142.386 -41.8293 142.49L-42.1056 142.618L-42.6917 142.891L-42.9839 143.03L-43.5461 143.3L-43.824 143.436L-44.4117 143.728L-44.6336 143.838C-45.1756 144.112 -45.7031 144.386 -46.2163 144.659L-46.3568 144.736L-46.9733 145.071L-47.1777 145.185C-47.3598 145.285 -47.5402 145.386 -47.7175 145.488L-47.9283 145.608L-48.4585 145.923L-48.639 146.028L-49.257 146.397L-49.3321 146.442C-49.8037 146.727 -50.2615 147.015 -50.7055 147.305L-50.8013 147.367C-50.9866 147.487 -51.1702 147.608 -51.3523 147.73L-51.4848 147.819C-51.6557 147.934 -51.825 148.049 -51.9927 148.166L-52.1173 148.252L-52.6491 148.626L-52.7209 148.677C-53.3342 149.118 -53.9198 149.56 -54.4777 150.004L-54.5288 150.044C-54.6885 150.177 -54.8593 150.309 -55.0206 150.442L-55.0925 150.503C-55.2522 150.634 -55.4119 150.766 -55.5716 150.899L-55.6211 150.942C-56.3206 151.542 -56.9749 152.143 -57.5838 152.746L-57.6078 152.77C-57.7515 152.912 -57.8921 153.054 -58.031 153.198L-58.0598 153.228C-58.2035 153.377 -58.3456 153.525 -58.4846 153.674L-62.1928 158.674C-66.08 165.501 -65.438 172.303 -63.8841 178.142C-63.7403 178.683 -63.5897 179.215 -63.4321 179.739C-63.4314 179.743 -63.4314 179.747 -63.4321 179.75L-63.3171 180.129C-63.3164 180.133 -63.3164 180.138 -63.3171 180.142C-63.1596 180.656 -62.9999 181.161 -62.838 181.656C-62.8336 181.667 -62.8299 181.678 -62.8268 181.69C-62.7885 181.805 -62.7502 181.92 -62.7135 182.033C-62.7135 182.033 -62.7135 182.048 -62.7055 182.054C-62.582 182.422 -62.4595 182.785 -62.3382 183.142V183.158C-62.2998 183.273 -62.2599 183.388 -62.22 183.501V183.511C-62.0826 183.909 -61.9469 184.297 -61.8143 184.678C-61.7968 184.733 -61.7776 184.786 -61.76 184.838L-61.7169 184.963C-61.6946 185.028 -61.6722 185.094 -61.6483 185.161C-61.6339 185.202 -61.6211 185.244 -61.6067 185.284C-61.5828 185.353 -61.5588 185.421 -61.5365 185.49C-61.5237 185.524 -61.5125 185.559 -61.5013 185.592C-61.4662 185.694 -61.4311 185.797 -61.3975 185.897C-58.0182 195.904 -38.9259 207.742 -66.7316 233.634C-82.2322 248.067 -79.2218 268.342 -73.5205 283.461L331.393 292.088C341.9 269.404 357.084 219.543 361.875 181.492H348.427V130.332C347.525 130 346.629 129.707 345.738 129.455L345.675 129.439C345.479 129.383 345.283 129.329 345.086 129.279L344.987 129.254L344.431 129.113L344.321 129.087C344.137 129.043 343.954 129.001 343.77 128.96L343.668 128.937C343.478 128.896 343.288 128.854 343.098 128.816L343.021 128.8L342.4 128.68H342.379C341.499 128.519 340.624 128.391 339.754 128.297H339.742L339.123 128.233H339.049L338.487 128.185H338.391C338.211 128.17 338.031 128.157 337.85 128.146H337.748L337.205 128.116H337.115L336.544 128.094H336.488C335.427 128.062 334.373 128.07 333.326 128.11H333.251C333.072 128.11 332.891 128.124 332.712 128.134H332.601L332.098 128.162H331.97L331.48 128.196L331.35 128.206L330.853 128.244L330.737 128.254L330.212 128.301H330.128C329.511 128.36 328.896 128.427 328.282 128.503H328.234L327.688 128.571L327.541 128.591L327.099 128.65L326.901 128.677L326.51 128.731L326.286 128.763L325.923 128.817L325.682 128.854L325.344 128.905L325.08 128.947L324.774 128.995L324.486 129.041L324.224 129.084L323.892 129.14L323.758 129.162C318.534 130.038 313.475 131.169 308.526 131.539V140.645H283.109V125.325H264.692V150.338H245.836V106.023H216.451V155.602H207.687V125.555H199.136L166.03 141.645H150.689V124.452H105.08V109.972H79.2085V153.848H68.6858V134.103H55.9688V148.579H40.6214V71.5825H33.387L20.0119 84.9643V122.696H7.04099V113.484H-6.51927C-6.58954 113.697 -6.6614 113.912 -6.73486 114.13V148.583H-27.7835V136.538C-28.3223 136.809 -28.8711 137.076 -29.4301 137.337H-29.446C-29.7159 137.463 -29.9874 137.589 -30.2637 137.714L-30.31 137.734C-30.5703 137.853 -30.8354 137.971 -31.1085 138.087L-31.198 138.127C-31.4492 138.234 -31.7021 138.34 -31.9565 138.447L-32.0971 138.508C-32.3366 138.609 -32.5778 138.708 -32.8205 138.806L-33.0106 138.883C-33.2453 138.979 -33.4897 139.071 -33.7228 139.166L-33.9368 139.25C-34.2467 139.37 -34.5581 139.49 -34.8743 139.607C-35.1905 139.723 -35.5482 139.861 -35.8788 139.988L-36.187 140.124Z" fill="#B4B4D2"/>
</g>
<path opacity="0.8" d="M91.707 100.381C91.5448 99.6815 91.2434 99.0216 90.8207 98.4403C90.398 97.8589 89.8626 97.3679 89.246 96.9962C88.6295 96.6246 87.9444 96.3798 87.2312 96.2765C86.5181 96.1732 85.7914 96.2134 85.0941 96.3947C84.2812 94.6628 82.8662 93.2827 81.1108 92.5097C79.3554 91.7367 77.3783 91.6231 75.5452 92.1899C74.5922 90.6139 73.2106 89.3389 71.5603 88.5126C69.91 87.6863 68.0585 87.3424 66.2201 87.5207C64.3817 87.6991 62.6316 88.3924 61.1724 89.5203C59.7132 90.6483 58.6045 92.1649 57.9747 93.8944C56.9533 93.3272 55.8007 93.0358 54.6313 93.0493C53.462 93.0628 52.3164 93.3807 51.3085 93.9714C50.3006 94.5622 49.4652 95.4052 48.8854 96.4168C48.3057 97.4284 48.0015 98.5735 48.0033 99.7383C48.0033 99.9584 48.0145 100.174 48.0353 100.387L91.707 100.381Z" fill="#FCDDEC"/>
<path d="M56.0555 301.022C59.0214 298.458 60.8143 295.756 60.3585 293.061C59.5393 288.253 52.7501 291.343 52.4919 287.872C52.0441 281.832 77.9547 283.244 77.0989 275.5C76.2622 267.929 57.2173 280.308 56.4204 274.842C55.928 271.462 84.7232 271.749 85.3081 264.065C85.893 256.381 64.4703 263.815 60.2469 261.559C56.0236 259.302 100.844 245.628 96.3573 235.58C92.6917 227.385 62.8208 246.556 57.8994 244.631C52.978 242.706 76.8534 226.484 84.2339 211.64C91.8662 196.289 85.6284 188.564 73.556 200.768C61.4837 212.973 41.6005 236.279 40.7781 229.264C39.9558 222.25 53.539 196.296 42.5089 198.238C23.1039 201.656 21.5022 233.941 15.4875 259.172C14.85 261.844 8.35882 230.388 0.490655 239.87C-3.55738 244.748 3.94901 280.665 8.62815 301.027L56.0555 301.022Z" fill="#F09A59"/>
<path opacity="0.8" d="M82.7676 68.601C82.9879 67.6856 83.3982 66.8217 83.9742 66.0605C84.5502 65.2992 85.2803 64.6561 86.1211 64.1692C86.962 63.6823 87.8965 63.3614 88.8695 63.2257C89.8425 63.0899 90.8341 63.142 91.7857 63.3788C92.8939 61.1143 94.8234 59.31 97.217 58.2997C99.6106 57.2894 102.306 57.1414 104.805 57.8833C106.105 55.8224 107.989 54.1551 110.239 53.0744C112.489 51.9938 115.014 51.5439 117.521 51.7769C120.028 52.01 122.414 52.9163 124.404 54.3911C126.394 55.866 127.906 57.8489 128.765 60.1105C130.159 59.3694 131.73 58.9891 133.325 59.0071C134.919 59.0252 136.481 59.4411 137.855 60.2136C139.23 60.9861 140.369 62.0883 141.159 63.4109C141.95 64.7335 142.365 66.2307 142.364 67.7538C142.364 68.0408 142.348 68.3232 142.32 68.6026L82.7676 68.601Z" fill="#FCDDEC"/>
<path opacity="0.8" d="M234.738 102.374C234.859 101.836 235.085 101.328 235.402 100.88C235.719 100.433 236.121 100.055 236.583 99.7685C237.045 99.4825 237.559 99.2941 238.094 99.2145C238.629 99.135 239.174 99.1659 239.697 99.3054C240.309 97.9741 241.37 96.9134 242.686 96.319C244.002 95.7245 245.485 95.6363 246.859 96.0706C247.574 94.8576 248.61 93.8763 249.847 93.2402C251.085 92.6041 252.473 92.3393 253.852 92.4764C255.231 92.6135 256.543 93.1468 257.637 94.0148C258.732 94.8827 259.563 96.0497 260.036 97.3807C260.802 96.9447 261.666 96.7209 262.543 96.7317C263.42 96.7424 264.28 96.9872 265.035 97.4419C265.791 97.8965 266.418 98.5452 266.853 99.3236C267.288 100.102 267.516 100.983 267.515 101.879C267.515 102.048 267.507 102.212 267.491 102.374H234.738Z" fill="#FCDDEC"/>
<path d="M164.517 299.452C164.859 300.816 166.189 301.996 168.121 303.013H230.925C232.959 293.151 234.17 281.818 229.695 279.581C226.089 277.78 224.835 283.848 222.395 282.322C218.148 279.669 231.741 262.974 226.16 259.75C220.698 256.609 219.662 275.451 215.626 273.309C213.131 271.986 227.38 252.799 222.544 248.641C217.708 244.483 212.205 262.507 208.64 264.232C205.076 265.957 217.839 229.191 208.95 227.289C201.701 225.738 199.894 255.166 196.21 257.528C192.525 259.89 193.365 235.932 187.072 223.719C180.563 211.088 172.365 211.496 174.606 225.575C176.846 239.654 182.679 264.39 177.601 261.507C172.524 258.624 161.847 236.84 157.758 245.186C150.563 259.882 159.953 272.918 173.839 289.286C175.309 291.015 162.038 289.533 164.517 299.452Z" fill="#F09A59"/>
<path d="M-36.4242 301.444C-36.4242 301.444 15.4666 256.164 82.3763 253.384C104.844 252.449 196.838 271.184 274.316 285.888C277.572 286.507 284.614 292.562 287.911 293.184C324.588 300.11 358.767 301.573 369.822 302.02L-36.4242 301.444Z" fill="#AEAFF7"/>
<path d="M293.04 281.162C293.241 279.526 293.341 277.881 293.34 276.233C293.34 257.561 280.666 242.424 265.033 242.424C249.4 242.424 236.724 257.561 236.724 276.233C236.724 277.88 236.824 279.526 237.024 281.162H293.04Z" fill="#7879F1"/>
<path d="M325.813 273.215C326.015 270.904 326.117 268.546 326.118 266.142C326.118 239.327 313.221 217.593 297.313 217.593C281.405 217.593 268.508 239.33 268.508 266.142C268.508 268.545 268.61 270.903 268.812 273.215H325.813Z" fill="#AEAFF7"/>
<path d="M269.879 302.02C269.627 299.713 269.501 297.394 269.502 295.073C269.502 268.737 285.51 247.391 305.259 247.391C325.008 247.391 341.017 268.74 341.017 295.073C341.017 297.394 340.891 299.713 340.639 302.02H269.879Z" fill="#7879F1"/>
<path d="M297.045 247.391C287.074 247.391 278.167 254.163 272.289 264.783C269.233 263.788 266.035 263.281 262.818 263.283C245.115 263.283 230.764 278.419 230.764 297.092C230.764 298.74 230.878 300.387 231.104 302.02H328.759C328.981 299.752 329.093 297.437 329.098 295.074C329.09 268.734 314.739 247.391 297.045 247.391Z" fill="#EF5DA8"/>
<path d="M289.422 175.807C289.446 175.01 290.543 174.387 291.125 175.096C291.707 175.805 291.68 175.326 292.246 176.849C293.91 181.263 296.192 185.415 299.024 189.181C304.34 196.283 309.601 199.866 315.576 203.415C313.114 197.839 311.465 191.892 311.255 185.891C311.179 183.704 311.22 181.43 312.152 179.428C312.412 178.867 313.411 178.982 313.512 179.608C314.013 182.705 313.274 185.039 314.273 190.581C316.651 203.804 326.072 217.836 335.16 227.659C333.417 211.029 332.573 192.133 335.69 175.356C336.2 172.603 337.014 169.987 337.768 167.298C337.946 166.661 338.841 166.938 338.73 167.566C338.572 168.461 337.09 180.003 336.999 180.8C335.558 193.573 335.847 207.723 336.968 220.627C344.017 211.035 348.735 199.815 350.942 188.099C351.593 184.636 351.767 181.059 352.685 177.659C352.811 177.193 353.581 177.142 353.676 177.659C354.616 182.757 352.735 191.762 351.365 196.656C348.587 206.576 344.144 215.467 338.069 223.41C337.833 223.719 347.825 301.337 347.557 302.32C347.104 303.979 344.228 305.142 343.784 302.201C343.603 301.003 338.114 253.808 335.636 231.945C334.699 231.427 334.098 230.511 331.69 227.785C326.116 221.489 320.606 213.656 316.922 206.269C314.712 206.141 298.75 198.336 290.833 180.565C290.605 180.052 289.576 177.647 289.43 177.11C289.3 176.659 289.408 176.261 289.422 175.807Z" fill="#7879F1"/>
<path d="M320.874 181.835C321.057 179.441 321.152 176.995 321.152 174.506C321.152 146.741 309.369 124.226 294.83 124.226C280.291 124.226 268.508 146.736 268.508 174.506C268.508 176.995 268.604 179.443 268.786 181.835H320.874Z" fill="#AEAFF7"/>
<path d="M362.517 181.835C362.747 178.453 362.865 174.999 362.869 171.472C362.869 132.213 347.97 100.387 329.594 100.387C311.217 100.387 296.32 132.221 296.32 171.472C296.32 174.992 296.437 178.446 296.672 181.835H362.517Z" fill="#7879F1"/>
<path d="M-7.46916 215.064L-10.1796 208.526C-12.2823 203.726 -17.6648 201.423 -22.2085 203.406C-33.639 208.386 -38.6093 222.242 -33.3086 234.36L-29.4322 243.217C-27.7353 247.098 -28.3255 251.368 -30.6158 254.378C-32.7008 257.111 -33.0344 260.912 -31.5925 264.208L-29.5492 268.878C-28.4755 271.336 -26.8808 273.533 -24.8749 275.317C-22.869 277.101 -20.4995 278.431 -17.9294 279.214C-16.3697 279.699 -14.934 280.515 -13.7215 281.608C-12.5089 282.7 -11.5484 284.042 -10.9062 285.54L-8.01928 292.153C-4.82122 299.463 3.368 302.953 10.2645 299.949L14.2003 298.235C21.0969 295.232 24.0961 286.873 20.898 279.56C15.7256 270.819 16.1378 264.295 17.971 259.876C19.3185 256.592 19.9906 253.072 19.9474 249.523C19.9041 245.975 19.1464 242.472 17.7192 239.222L17.3102 238.287C15.8164 234.863 13.6083 231.795 10.833 229.29C8.0578 226.784 4.77918 224.897 1.21564 223.755C-1.90703 222.756 -5.16284 220.332 -7.46916 215.064Z" fill="#EF5DA8"/>
<path d="M36.0841 300.97C32.0989 295.866 -5.38734 268.576 -19.6527 264.019C-35.4006 258.984 -20.5598 278.964 -20.5598 278.964C-20.5598 278.964 -48.4943 248.819 -58.7443 251.537C-68.1413 254.027 -58.7443 272.713 -58.7443 272.713C-58.7443 272.713 -69.3289 262.367 -82.1628 262.367C-94.654 262.367 -73.4369 299.062 -72.2923 301.027L36.0841 300.97Z" fill="#D3D3F4"/>
<path d="M-3.30174 250.464C-6.79886 241.462 -10.2232 232.455 -12.7098 223.089C-20.3589 194.27 -18.5125 173.263 -18.2279 163.163C-18.1891 161.83 -20.3524 161.463 -20.5416 162.844C-21.1883 167.585 -21.337 172.401 -21.3694 177.184C-21.4217 185.29 -20.9237 193.39 -19.8787 201.43C-25.4906 202.876 -30.7985 200.71 -35.1412 196.819C-42.6269 190.115 -45.2995 181.175 -46.4765 171.277C-46.5961 170.267 -46.6382 169.309 -47.466 168.723C-47.6519 168.204 -48.4166 168.045 -48.6074 168.819C-49.7941 170.026 -49.2186 172.448 -49.0359 174.006C-46.5654 195.092 -33.6133 205.312 -23.185 205.223C-22.0403 205.213 -20.6499 205.157 -19.4066 204.816C-18.6521 209.859 -17.6852 214.861 -16.5061 219.822C-14.2539 229.264 -11.093 238.376 -7.61372 247.405C4.27938 278.274 8.06914 294.045 11.4515 302.98C11.9624 304.776 14.6479 304.024 14.1774 302.206C14.0092 301.557 4.73047 271.145 -3.30174 250.464Z" fill="#7879F1"/>
<path d="M43.837 169.556C43.725 168.893 43.3362 168.454 43.189 167.834C42.9938 167.016 41.6546 166.933 41.5154 167.834C41.4354 168.348 41.149 168.665 41.0354 169.193C40.677 170.895 41.5442 180.475 39.2754 195.141C38.6738 199.039 38.0082 202.914 36.7154 206.635C34.613 212.649 30.7794 219.13 26.0146 223.227C25.8891 214.637 25.3225 206.058 24.317 197.525C23.6973 192.417 22.9154 187.337 21.9714 182.284C21.5106 179.825 21.0114 177.372 20.4738 174.927C19.9122 172.362 19.381 169.9 18.1506 167.579C17.773 166.866 16.6978 167.199 16.6962 167.989C16.6962 170.266 17.1474 172.363 17.6242 174.575C18.101 176.787 18.541 178.988 18.9538 181.203C22.0162 197.623 23.1682 212.206 23.1554 228.647C18.1074 222.312 13.693 214.724 10.4226 207.272C6.45352 198.247 3.86481 188.681 2.74265 178.892C2.43545 176.156 2.25092 173.409 2.18906 170.65C2.15919 169.225 2.12986 167.799 2.10106 166.372C2.08506 165.638 1.80345 163.424 0.565054 164.074C-0.575745 164.67 -0.466943 166.001 -0.562943 167.164C-0.666943 168.438 -0.67654 169.694 -0.66054 170.967C-0.62854 173.401 -0.498942 175.832 -0.271742 178.26C1.36666 195.827 8.01145 213.192 18.1154 227.421C19.6562 229.588 21.2466 231.913 23.117 233.806C22.6866 261.924 18.4994 297.439 18.4258 300.279C18.4098 300.905 18.5522 301.553 18.645 302.164C18.8354 303.438 20.517 303.145 20.8594 302.164C21.509 300.312 21.4418 299.591 22.4114 289.334C24.1378 271.042 26.0722 229.137 26.0642 227.441C32.0642 223.142 36.3042 216.528 39.0882 209.62C40.5602 205.957 41.4242 202.183 42.0738 198.279C44.2674 185 44.1986 171.726 43.837 169.556Z" fill="#7879F1"/>
<path d="M1.97208 146.073C2.19985 144.016 2.3137 141.947 2.31308 139.877C2.31308 116.421 -12.1395 97.4075 -29.9673 97.4075C-47.795 97.4075 -62.2492 116.426 -62.2492 139.882C-62.2498 141.952 -62.136 144.02 -61.9082 146.078L1.97208 146.073Z" fill="#7879F1"/>
<path d="M39.711 136.145C39.9386 133.255 40.054 130.305 40.0572 127.293C40.0572 93.7807 25.3823 66.6162 7.28023 66.6162C-10.8218 66.6162 -25.4984 93.7839 -25.4984 127.293C-25.4984 130.297 -25.3829 133.248 -25.1521 136.145H39.711Z" fill="#AEAFF7"/>
<path d="M-25.0574 172.896C-25.3471 170.008 -25.4941 167.058 -25.4984 164.044C-25.4984 130.53 -6.82077 103.367 16.218 103.367C39.2568 103.367 57.936 130.535 57.936 164.044C57.936 167.048 57.789 169.999 57.495 172.896H-25.0574Z" fill="#7879F1"/>
<path d="M7.12374 103.367C-4.35739 103.367 -14.6142 111.991 -21.3841 125.508C-24.884 124.244 -28.5758 123.598 -32.2956 123.599C-52.6744 123.599 -69.2021 142.86 -69.2021 166.62C-69.2029 168.718 -69.0727 170.814 -68.8122 172.896H43.6403C43.897 170.009 44.027 167.058 44.0302 164.045C44.0334 130.53 27.509 103.367 7.12374 103.367Z" fill="#AEAFF7"/>
<path d="M-19.4718 265.346C-11.1865 273.717 -3.96344 283.205 1.43781 293.756C2.95356 296.719 4.23537 299.77 5.55725 302.819C5.7335 303.224 6.41286 302.934 6.26545 302.515L5.82322 301.26C5.7367 301.015 5.29928 301.026 5.34254 301.327C5.39808 301.76 5.45149 302.194 5.50277 302.627L6.26384 302.522C4.20973 297.005 1.3593 291.688 -1.70744 286.695C-10.9013 271.727 -20.4203 264.395 -19.4734 265.352L-19.4718 265.346Z" fill="#AEAFF7"/>
<path d="M201.959 180.842C202.501 179.908 203.101 179.025 203.719 178.157C204.337 177.289 204.981 176.446 205.641 175.619C206.301 174.793 206.985 173.98 207.691 173.19C208.397 172.4 209.122 171.629 209.906 170.909C209.364 171.845 208.764 172.727 208.148 173.594C207.531 174.461 206.886 175.305 206.223 176.133C205.559 176.962 204.879 177.771 204.174 178.561C203.47 179.351 202.743 180.12 201.959 180.842Z" fill="#FCDDEC"/>
<path d="M115.545 92.441C116.088 91.5058 116.687 90.6233 117.305 89.7567C117.923 88.8902 118.567 88.046 119.228 87.2177C119.888 86.3894 120.572 85.5787 121.278 84.7888C121.984 83.9988 122.71 83.2296 123.492 82.5083C122.951 83.4435 122.351 84.326 121.735 85.1941C121.118 86.0623 120.473 86.9049 119.809 87.7316C119.146 88.5582 118.465 89.3625 117.761 90.1605C117.056 90.9584 116.327 91.7196 115.545 92.441Z" fill="#FCDDEC"/>
<path d="M82.7676 120.252C83.3775 119.317 84.0523 118.435 84.7458 117.568C85.4394 116.702 86.1654 115.857 86.9102 115.029C87.655 114.201 88.422 113.392 89.2147 112.602C90.0073 111.812 90.8256 111.041 91.707 110.32C91.0989 111.255 90.4241 112.138 89.7289 113.006C89.0336 113.874 88.3093 114.716 87.5645 115.543C86.8197 116.37 86.0509 117.18 85.2583 117.97C84.4657 118.76 83.6474 119.53 82.7676 120.252Z" fill="#FCDDEC"/>
<path d="M117.532 118.266C118.142 117.332 118.817 116.45 119.51 115.581C120.204 114.713 120.93 113.87 121.675 113.042C122.419 112.213 123.186 111.404 123.979 110.614C124.772 109.824 125.59 109.053 126.471 108.333C125.863 109.267 125.189 110.151 124.495 111.018C123.801 111.885 123.074 112.729 122.329 113.556C121.584 114.383 120.817 115.193 120.023 115.983C119.228 116.774 118.414 117.544 117.532 118.266Z" fill="#FCDDEC"/>
<path d="M87.7339 141.111C88.2759 140.177 88.8756 139.295 89.4935 138.426C90.1114 137.558 90.7551 136.717 91.417 135.889C92.0789 135.06 92.7606 134.249 93.465 133.459C94.1694 132.669 94.8966 131.9 95.68 131.178C95.138 132.114 94.5383 132.996 93.922 133.865C93.3056 134.733 92.6604 135.574 91.9969 136.403C91.3335 137.231 90.6533 138.04 89.9489 138.83C89.2445 139.62 88.5173 140.396 87.7339 141.111Z" fill="#FCDDEC"/>
<path d="M89.7205 212.626C90.2626 211.691 90.8624 210.809 91.4789 209.942C92.0953 209.075 92.7407 208.231 93.4027 207.403C94.0648 206.575 94.7466 205.766 95.4511 204.976C96.1557 204.186 96.8831 203.415 97.6666 202.694C97.126 203.629 96.5262 204.513 95.9082 205.379C95.2902 206.246 94.6464 207.09 93.9843 207.917C93.3223 208.744 92.639 209.554 91.9344 210.344C91.2298 211.134 90.5025 211.905 89.7205 212.626Z" fill="#FCDDEC"/>
<path d="M48.9967 214.613C49.6066 213.679 50.2813 212.796 50.9766 211.928C51.6719 211.06 52.3962 210.217 53.1393 209.39C53.8824 208.564 54.6511 207.751 55.4454 206.961C56.2398 206.171 57.0563 205.4 57.9361 204.68C57.328 205.616 56.6532 206.498 55.9596 207.365C55.2661 208.232 54.54 209.076 53.7935 209.903C53.047 210.729 52.2817 211.542 51.4891 212.34C50.6964 213.138 49.8782 213.891 48.9967 214.613Z" fill="#FCDDEC"/>
<path d="M66.8755 181.835C67.4853 180.9 68.1601 180.017 68.8537 179.151C69.5472 178.284 70.2732 177.44 71.0181 176.612C71.7629 175.783 72.5299 174.974 73.3225 174.184C74.1152 173.394 74.9334 172.624 75.8149 171.902C75.2067 172.838 74.532 173.72 73.8367 174.588C73.1414 175.456 72.4171 176.299 71.6723 177.126C70.9275 177.952 70.1588 178.763 69.3661 179.553C68.5735 180.343 67.7552 181.114 66.8755 181.835Z" fill="#FCDDEC"/>
<path d="M41.0505 151.044C41.5926 150.11 42.1924 149.226 42.8089 148.359C43.4254 147.492 44.0707 146.648 44.7328 145.82C45.3948 144.991 46.0766 144.182 46.7812 143.392C47.4857 142.602 48.2131 141.831 48.9966 141.111C48.456 142.045 47.8562 142.929 47.2382 143.796C46.6202 144.662 45.9764 145.507 45.3143 146.334C44.6523 147.16 43.969 147.971 43.2644 148.761C42.5598 149.551 41.8325 150.322 41.0505 151.044Z" fill="#FCDDEC"/>
<path d="M62.9025 76.5489C63.4446 75.6137 64.0443 74.7312 64.6624 73.8646C65.2804 72.9981 65.9242 72.1539 66.5847 71.3256C67.2453 70.4974 67.9286 69.6882 68.6347 68.8983C69.3408 68.1083 70.0651 67.3375 70.8486 66.6162C70.308 67.5514 69.7082 68.4339 69.0917 69.302C68.4752 70.1702 67.8299 71.0128 67.1663 71.8395C66.5027 72.6661 65.8225 73.4768 65.1179 74.2748C64.4133 75.0727 63.686 75.8275 62.9025 76.5489Z" fill="#FCDDEC"/>
<path d="M39.0639 54.6971C39.6736 53.7633 40.3483 52.8807 41.0434 52.0124C41.7385 51.1441 42.4627 50.3013 43.2074 49.473C43.952 48.6446 44.7189 47.8353 45.5114 47.0453C46.3039 46.2552 47.122 45.4843 48.0033 44.7644C47.3936 45.6997 46.7189 46.5824 46.0255 47.4491C45.3321 48.3158 44.6062 49.1601 43.8598 49.9869C43.1134 50.8137 42.3483 51.6245 41.5575 52.4146C40.7667 53.2047 39.9452 53.9756 39.0639 54.6971Z" fill="#FCDDEC"/>
<path d="M-1.65997 110.32C-1.05024 109.386 -0.375593 108.503 0.319541 107.635C1.01468 106.767 1.73884 105.926 2.48351 105.097C3.22817 104.269 3.99504 103.458 4.78752 102.668C5.58001 101.878 6.39812 101.109 7.27942 100.387C6.67139 101.323 5.98821 102.205 5.30504 103.073C4.62186 103.942 3.88573 104.783 3.13936 105.611C2.39299 106.44 1.62783 107.249 0.835344 108.039C0.0428572 108.829 -0.778673 109.598 -1.65997 110.32Z" fill="#FCDDEC"/>
<path d="M44.0301 118.266C44.5722 117.332 45.172 116.45 45.7885 115.581C46.405 114.713 47.0503 113.87 47.7124 113.042C48.3744 112.213 49.0562 111.404 49.7608 110.614C50.4653 109.824 51.1927 109.053 51.9762 108.333C51.4356 109.267 50.8358 110.151 50.2178 111.018C49.5998 111.885 48.956 112.729 48.2939 113.556C47.6319 114.383 46.9501 115.193 46.244 115.983C45.5379 116.774 44.8151 117.544 44.0301 118.266Z" fill="#FCDDEC"/>
<path d="M-1.65997 174.882C-1.05024 173.947 -0.375593 173.064 0.319541 172.198C1.01468 171.331 1.73884 170.487 2.48351 169.659C3.22817 168.831 3.99504 168.022 4.78752 167.232C5.58001 166.442 6.39812 165.671 7.27942 164.949C6.67139 165.885 5.98821 166.767 5.30504 167.635C4.62186 168.503 3.88573 169.346 3.13936 170.173C2.39299 170.999 1.62783 171.81 0.835344 172.6C0.0428572 173.39 -0.778673 174.161 -1.65997 174.882Z" fill="#FCDDEC"/>
<path d="M2.31323 217.593C2.85532 216.657 3.45512 215.775 4.07314 214.908C4.69115 214.042 5.33498 213.198 5.99551 212.369C6.65604 211.541 7.33935 210.732 8.04544 209.942C8.75152 209.152 9.47735 208.381 10.2594 207.66C9.71879 208.595 9.11899 209.478 8.5025 210.346C7.886 211.214 7.24065 212.057 6.57708 212.883C5.91351 213.71 5.23324 214.521 4.52868 215.31C3.82411 216.1 3.09676 216.873 2.31323 217.593Z" fill="#FCDDEC"/>
<path d="M69.8551 282.155C70.3971 281.221 70.9968 280.338 71.6147 279.47C72.2326 278.602 72.8763 277.759 73.5382 276.931C74.2001 276.102 74.8818 275.293 75.5862 274.503C76.2906 273.713 77.0179 272.942 77.8012 272.222C77.2592 273.156 76.6596 274.04 76.0432 274.907C75.4268 275.774 74.7816 276.618 74.1181 277.445C73.4547 278.271 72.7746 279.082 72.0701 279.872C71.3657 280.662 70.6385 281.433 69.8551 282.155Z" fill="#FCDDEC"/>
<path d="M98.66 231.498C99.2005 230.563 99.8004 229.681 100.418 228.814C101.036 227.948 101.68 227.103 102.342 226.275C103.004 225.447 103.686 224.638 104.391 223.846C105.095 223.055 105.823 222.287 106.606 221.566C106.066 222.501 105.466 223.383 104.848 224.252C104.23 225.12 103.586 225.961 102.924 226.789C102.262 227.617 101.578 228.426 100.874 229.216C100.169 230.006 99.442 230.777 98.66 231.498Z" fill="#FCDDEC"/>
<path d="M97.6667 268.249C98.2073 267.314 98.807 266.431 99.4251 265.565C100.043 264.698 100.687 263.854 101.349 263.026C102.011 262.198 102.693 261.388 103.397 260.599C104.102 259.809 104.829 259.038 105.613 258.316C105.072 259.252 104.472 260.136 103.854 261.002C103.236 261.869 102.593 262.713 101.931 263.54C101.268 264.366 100.585 265.177 99.8806 265.967C99.176 266.757 98.4487 267.528 97.6667 268.249Z" fill="#FCDDEC"/>
<path d="M48.9967 257.323C49.6066 256.39 50.2813 255.507 50.9766 254.639C51.6719 253.77 52.3962 252.929 53.1393 252.101C53.8824 251.272 54.6511 250.462 55.4454 249.671C56.2398 248.881 57.0563 248.112 57.9361 247.391C57.328 248.326 56.6532 249.209 55.9596 250.075C55.2661 250.942 54.54 251.786 53.7935 252.615C53.047 253.443 52.2817 254.252 51.4891 255.042C50.6964 255.833 49.8782 256.6 48.9967 257.323Z" fill="#FCDDEC"/>
<path d="M7.27954 262.29C7.82012 261.354 8.4199 260.472 9.03792 259.605C9.65593 258.739 10.2998 257.895 10.9618 257.066C11.6239 256.238 12.3057 255.429 13.0102 254.639C13.7148 253.849 14.4421 253.078 15.2257 252.357C14.6836 253.292 14.0853 254.175 13.4673 255.043C12.8493 255.911 12.2054 256.754 11.5434 257.58C10.8813 258.407 10.198 259.218 9.49346 260.008C8.78889 260.797 8.06155 261.568 7.27954 262.29Z" fill="#FCDDEC"/>
<path d="M32.1111 292.087C32.7141 291.159 33.3974 290.271 34.0893 289.403C34.7811 288.534 35.5088 287.692 36.2536 286.865C36.9985 286.038 37.7655 285.226 38.5598 284.436C39.3542 283.646 40.169 282.875 41.0505 282.155C40.4423 283.09 39.7676 283.973 39.074 284.839C38.3804 285.706 37.6544 286.551 36.9079 287.377C36.1614 288.204 35.3961 289.015 34.6035 289.805C33.8108 290.595 32.9926 291.366 32.1111 292.087Z" fill="#FCDDEC"/>
<path d="M197.986 242.424C198.596 241.489 199.271 240.607 199.965 239.74C200.658 238.874 201.386 238.029 202.129 237.201C202.872 236.373 203.641 235.564 204.435 234.774C205.229 233.984 206.044 233.213 206.926 232.492C206.318 233.427 205.643 234.309 204.949 235.178C204.256 236.046 203.53 236.888 202.783 237.715C202.037 238.542 201.271 239.352 200.479 240.142C199.686 240.932 198.868 241.703 197.986 242.424Z" fill="#FCDDEC"/>
<path d="M264.535 205.673C265.145 204.74 265.82 203.857 266.513 202.989C267.207 202.12 267.933 201.278 268.678 200.449C269.423 199.621 270.19 198.812 270.982 198.022C271.775 197.232 272.593 196.461 273.475 195.741C272.867 196.676 272.192 197.559 271.497 198.425C270.801 199.292 270.077 200.136 269.332 200.963C268.587 201.79 267.819 202.601 267.026 203.391C266.233 204.181 265.415 204.952 264.535 205.673Z" fill="#FCDDEC"/>
<path d="M213.879 212.626C214.489 211.691 215.163 210.809 215.857 209.942C216.551 209.075 217.277 208.231 218.021 207.403C218.766 206.575 219.533 205.766 220.326 204.976C221.118 204.186 221.937 203.415 222.818 202.694C222.21 203.629 221.535 204.513 220.842 205.379C220.148 206.246 219.42 207.09 218.676 207.917C217.931 208.744 217.164 209.554 216.369 210.344C215.575 211.134 214.759 211.905 213.879 212.626Z" fill="#FCDDEC"/>
<path d="M246.657 174.882C247.199 173.947 247.798 173.064 248.415 172.198C249.031 171.331 249.677 170.487 250.339 169.659C251.001 168.831 251.683 168.022 252.387 167.232C253.092 166.442 253.819 165.671 254.603 164.949C254.062 165.885 253.462 166.767 252.846 167.635C252.229 168.503 251.584 169.346 250.92 170.173C250.257 170.999 249.577 171.81 248.87 172.6C248.164 173.39 247.44 174.161 246.657 174.882Z" fill="#FCDDEC"/>
<path d="M238.71 136.145C239.253 135.211 239.852 134.328 240.469 133.46C241.085 132.592 241.731 131.749 242.393 130.922C243.055 130.096 243.737 129.283 244.441 128.493C245.146 127.703 245.873 126.934 246.657 126.212C246.116 127.147 245.516 128.03 244.898 128.897C244.28 129.764 243.636 130.608 242.974 131.436C242.312 132.265 241.629 133.074 240.924 133.864C240.22 134.654 239.492 135.423 238.71 136.145Z" fill="#FCDDEC"/>
<path d="M201.959 147.071C202.501 146.137 203.101 145.253 203.719 144.386C204.337 143.519 204.981 142.675 205.641 141.847C206.301 141.018 206.985 140.209 207.691 139.419C208.397 138.629 209.122 137.858 209.906 137.138C209.364 138.072 208.764 138.956 208.148 139.823C207.531 140.69 206.886 141.534 206.223 142.361C205.559 143.187 204.879 143.998 204.174 144.788C203.47 145.578 202.743 146.349 201.959 147.071Z" fill="#FCDDEC"/>
<path d="M269.502 141.111C270.042 140.177 270.642 139.293 271.26 138.426C271.878 137.56 272.522 136.715 273.184 135.887C273.846 135.059 274.528 134.249 275.232 133.459C275.937 132.669 276.664 131.898 277.448 131.178C276.906 132.112 276.307 132.996 275.689 133.863C275.071 134.73 274.428 135.574 273.765 136.401C273.103 137.228 272.42 138.039 271.716 138.829C271.011 139.619 270.291 140.39 269.502 141.111Z" fill="#FCDDEC"/>
<path d="M264.535 110.32C265.077 109.386 265.677 108.503 266.294 107.635C266.91 106.767 267.556 105.926 268.218 105.097C268.88 104.269 269.561 103.458 270.266 102.668C270.971 101.878 271.698 101.109 272.481 100.387C271.941 101.323 271.341 102.205 270.723 103.073C270.105 103.942 269.461 104.783 268.799 105.611C268.137 106.44 267.454 107.249 266.749 108.039C266.045 108.829 265.317 109.598 264.535 110.32Z" fill="#FCDDEC"/>
<path d="M174.148 225.539C174.758 224.605 175.433 223.722 176.127 222.854C176.82 221.986 177.546 221.143 178.291 220.315C179.036 219.486 179.803 218.677 180.595 217.887C181.388 217.097 182.206 216.326 183.088 215.606C182.48 216.54 181.805 217.424 181.11 218.291C180.414 219.158 179.69 220.002 178.945 220.829C178.2 221.655 177.432 222.466 176.639 223.256C175.846 224.047 175.028 224.817 174.148 225.539Z" fill="#FCDDEC"/>
<path d="M173.155 276.195C173.697 275.26 174.297 274.377 174.913 273.511C175.53 272.644 176.175 271.8 176.837 270.971C177.499 270.143 178.181 269.334 178.886 268.544C179.59 267.753 180.318 266.983 181.101 266.263C180.56 267.196 179.961 268.081 179.343 268.947C178.725 269.814 178.082 270.658 177.419 271.485C176.755 272.312 176.075 273.123 175.369 273.913C174.663 274.703 173.94 275.474 173.155 276.195Z" fill="#FCDDEC"/>
<path d="M190.041 298.047C190.583 297.113 191.182 296.231 191.799 295.362C192.415 294.494 193.061 293.651 193.723 292.825C194.385 291.998 195.067 291.185 195.771 290.395C196.476 289.605 197.203 288.836 197.987 288.115C197.446 289.05 196.846 289.932 196.23 290.799C195.613 291.666 194.968 292.51 194.304 293.339C193.641 294.167 192.961 294.976 192.254 295.766C191.548 296.556 190.824 297.326 190.041 298.047Z" fill="#FCDDEC"/>
<path d="M223.811 269.242C224.421 268.309 225.096 267.426 225.79 266.558C226.483 265.69 227.209 264.848 227.954 264.02C228.699 263.192 229.466 262.381 230.258 261.591C231.051 260.801 231.869 260.031 232.751 259.31C232.143 260.245 231.468 261.128 230.774 261.996C230.081 262.864 229.353 263.706 228.608 264.534C227.863 265.362 227.096 266.172 226.302 266.962C225.508 267.752 224.696 268.523 223.811 269.242Z" fill="#FCDDEC"/>
<path d="M264.535 290.101C265.077 289.167 265.677 288.284 266.294 287.416C266.91 286.548 267.556 285.705 268.218 284.878C268.88 284.052 269.561 283.239 270.266 282.449C270.971 281.659 271.698 280.888 272.481 280.168C271.941 281.104 271.341 281.986 270.723 282.853C270.105 283.72 269.461 284.564 268.799 285.392C268.137 286.221 267.454 287.03 266.749 287.82C266.045 288.61 265.317 289.379 264.535 290.101Z" fill="#FCDDEC"/>
<path d="M293.34 252.357C293.882 251.422 294.482 250.539 295.098 249.673C295.715 248.806 296.36 247.962 297.022 247.134C297.684 246.305 298.366 245.496 299.071 244.706C299.775 243.916 300.503 243.146 301.286 242.424C300.745 243.359 300.146 244.242 299.529 245.11C298.913 245.978 298.266 246.821 297.604 247.648C296.942 248.474 296.26 249.285 295.554 250.075C294.848 250.865 294.123 251.636 293.34 252.357Z" fill="#FCDDEC"/>
<path d="M264.535 232.491C265.145 231.556 265.82 230.674 266.513 229.807C267.207 228.941 267.933 228.096 268.678 227.268C269.423 226.44 270.19 225.631 270.982 224.841C271.775 224.051 272.593 223.28 273.475 222.559C272.867 223.494 272.192 224.377 271.497 225.245C270.801 226.113 270.077 226.955 269.332 227.782C268.587 228.609 267.819 229.419 267.026 230.209C266.233 230.999 265.415 231.77 264.535 232.491Z" fill="#FCDDEC"/>
<path d="M222.818 105.354C223.428 104.418 224.103 103.536 224.798 102.669C225.493 101.803 226.217 100.959 226.962 100.13C227.706 99.302 228.473 98.4929 229.266 97.703C230.058 96.913 230.876 96.1422 231.758 95.4209C231.148 96.3561 230.473 97.2402 229.78 98.1067C229.086 98.9733 228.361 99.8175 227.614 100.644C226.868 101.471 226.103 102.282 225.31 103.071C224.518 103.861 223.7 104.632 222.818 105.354Z" fill="#FCDDEC"/>
<path d="M160.242 87.4747C160.785 86.5409 161.384 85.6567 162.001 84.79C162.617 83.9233 163.263 83.0789 163.925 82.2505C164.587 81.4222 165.269 80.6129 165.973 79.8228C166.678 79.0328 167.405 78.2618 168.189 77.542C167.648 78.4757 167.048 79.36 166.43 80.2267C165.812 81.0934 165.168 81.9377 164.506 82.7645C163.844 83.5913 163.161 84.4021 162.456 85.1922C161.752 85.9823 161.021 86.7532 160.242 87.4747Z" fill="#FCDDEC"/>
<path d="M194.014 121.246C194.554 120.312 195.154 119.43 195.772 118.561C196.39 117.693 197.034 116.85 197.696 116.023C198.358 115.197 199.04 114.384 199.744 113.594C200.449 112.804 201.176 112.035 201.96 111.313C201.419 112.249 200.819 113.131 200.201 113.998C199.583 114.865 198.94 115.709 198.278 116.537C197.615 117.366 196.932 118.175 196.228 118.965C195.523 119.755 194.796 120.524 194.014 121.246Z" fill="#FCDDEC"/>
<path d="M158.256 123.232C158.796 122.297 159.396 121.415 160.014 120.548C160.632 119.681 161.276 118.837 161.938 118.009C162.6 117.181 163.282 116.372 163.987 115.582C164.691 114.792 165.418 114.021 166.202 113.3C165.66 114.235 165.062 115.117 164.444 115.985C163.826 116.854 163.182 117.696 162.52 118.523C161.858 119.349 161.174 120.16 160.47 120.95C159.765 121.74 159.038 122.511 158.256 123.232Z" fill="#FCDDEC"/>
<path d="M143.913 147.071L143.809 154.46C143.809 154.46 155.428 162.988 157.746 177.419C160.063 191.85 159.578 213.65 157.136 227.656C154.695 241.662 149.923 269.408 149.275 278.163C148.627 286.917 150.144 295.642 148.36 299.228C146.575 302.815 144.237 304.007 144.237 304.007C144.237 304.007 140.139 266.401 140.011 264.618L136.013 208.822C136.013 208.822 133.083 185.729 135.165 180.968C137.247 176.208 143.239 174.367 143.239 174.367L135.44 174.674L143.913 147.071Z" fill="#944441"/>
<path d="M151.464 168.628L153.29 165.943C153.232 166.083 153.143 166.208 153.029 166.309C152.915 166.409 152.779 166.482 152.632 166.522C150.119 167.212 138.091 171.003 131.099 182.046C123.256 194.43 115.093 214.707 111.829 228.575C108.565 242.443 102.038 269.904 99.1837 278.227C96.3297 286.549 91.4701 293.987 91.716 297.997C91.7901 299.521 92.1356 301.021 92.7364 302.425C92.8106 302.592 92.9298 302.735 93.0809 302.839C93.2319 302.943 93.4089 303.003 93.5921 303.012C93.7753 303.021 93.9576 302.98 94.1186 302.893C94.2796 302.805 94.4131 302.675 94.5041 302.516C98.1681 296.026 112.409 270.789 113.126 269.403L138.857 219.597L138.881 219.552C139.305 218.83 150.709 199.356 150.654 194.244C150.632 192.004 149.716 189.962 148.684 188.376C148.569 188.194 148.516 187.981 148.533 187.767C148.55 187.553 148.636 187.351 148.779 187.19C148.921 187.029 149.112 186.919 149.323 186.876C149.534 186.832 149.754 186.858 149.949 186.95L151.613 187.737C151.758 187.805 151.916 187.837 152.075 187.831C152.235 187.825 152.39 187.781 152.529 187.702C152.668 187.624 152.785 187.513 152.872 187.38C152.959 187.247 153.012 187.095 153.028 186.937L152.118 171.354C152.245 170.217 151.899 167.57 151.464 168.628Z" fill="#944441"/>
<path d="M158.573 183.231C157.366 164.021 143.752 153.995 143.752 153.995L143.857 146.351L137.411 143.111V143.098H137.398H137.385V143.111L130.939 146.351L131.043 153.995C131.043 153.995 117.429 164.021 116.221 183.231C115.014 202.44 115.792 213.62 115.792 213.62H159.001C159.001 213.62 159.782 202.448 158.573 183.231Z" fill="#EF5DA8"/>
<path opacity="0.1" d="M161.507 183.329C154.808 160.825 143.938 153.941 143.938 153.941L144.044 146.335L137.504 143.11V143.098H137.492H137.479V143.11L130.939 146.335L128.642 157.418C128.642 157.418 125.058 154.845 111.096 183.337C100.808 204.34 93.6936 257.323 93.6936 257.323L134.008 247.399C134.461 247.284 134.92 247.198 135.383 247.139C137.373 246.897 139.382 246.854 141.381 247.011C141.851 247.051 142.319 247.12 142.781 247.216L183.088 255.399C183.088 255.399 170.218 212.571 161.507 183.329Z" fill="#AEAFF7"/>
<path d="M138.887 104.36C143.001 104.36 146.337 101.025 146.337 96.9107C146.337 92.7964 143.001 89.4612 138.887 89.4612C134.773 89.4612 131.438 92.7964 131.438 96.9107C131.438 101.025 134.773 104.36 138.887 104.36Z" fill="#371B34"/>
<path d="M146.833 120.253C149.302 120.253 151.303 118.474 151.303 116.279C151.303 114.085 149.302 112.306 146.833 112.306C144.365 112.306 142.364 114.085 142.364 116.279C142.364 118.474 144.365 120.253 146.833 120.253Z" stroke="#EF5DA8" stroke-width="2.1" stroke-miterlimit="10"/>
<path d="M131.934 120.253C134.403 120.253 136.404 118.474 136.404 116.279C136.404 114.085 134.403 112.306 131.934 112.306C129.466 112.306 127.465 114.085 127.465 116.279C127.465 118.474 129.466 120.253 131.934 120.253Z" stroke="#EF5DA8" stroke-width="2.1" stroke-miterlimit="10"/>
<path d="M105.266 146.929C105.266 146.929 113.449 138.41 121.962 133.21C130.474 128.009 136.105 125.083 136.105 120.733C136.105 116.384 135.716 109.837 136.105 107.438C136.469 105.187 139.277 103.009 141.595 105.401C142.352 106.181 142.601 107.068 142.601 109.097V120.733C142.601 120.733 141.752 124.139 153.03 130.998C164.308 137.858 171.935 144.938 173.152 146.376C174.369 147.815 176.027 155.449 167.514 153.788C159.001 152.128 149.27 149.026 149.27 149.026C149.27 149.026 136.777 146.591 134.675 144.821C132.573 143.051 130.032 142.055 130.032 142.055C130.032 142.055 128.84 140.174 131.758 140.506C134.675 140.838 139.871 139.842 145.179 141.944C150.487 144.046 161.984 142.387 165.301 144.268L148.769 142.784L146.775 140.512L140.472 133.659L133.576 135.088L126.469 141.712L129.699 142.009C129.699 142.009 134.248 142.009 134.642 141.841C135.035 141.673 140.54 137.682 144.192 139.649C147.844 141.615 147.394 144.371 147.394 144.371C147.394 144.371 141.721 144.989 139.192 144.371C136.663 143.754 138.798 146.676 131.832 147.856C131.832 147.856 108.138 156.963 105.266 151.566C105.266 151.566 103.811 149.543 105.266 146.929Z" fill="#944441"/>
<path d="M148.068 133.709C146.711 130.335 148.63 128.199 148.63 128.199C148.63 128.199 146.78 129.518 145.368 130.732C143.505 132.333 139.665 132.396 139.665 132.396C131.396 132.742 128.72 128.743 128.72 128.743C128.72 128.743 128.805 132.652 126.09 135.226C123.121 138.044 125.145 142.13 125.327 142.608C125.466 142.631 129.392 142.542 129.392 142.542H129.7C129.54 142.236 128.818 140.707 131.476 141.014C132.8 141.166 134.589 141.046 136.642 141.061C138.694 140.001 141.739 138.874 144.049 140.132C145.726 141.044 146.546 142.12 146.937 143.025C147.731 143.039 148.525 143.063 149.321 143.098C149.631 142.478 149.887 141.832 150.085 141.167C150.877 137.45 149.427 137.083 148.068 133.709Z" fill="#EF5DA8"/>
<path d="M114.552 250.202C115.189 250.239 115.829 250.231 116.464 250.179C117.092 250.127 117.71 250.026 118.309 249.877C118.908 249.728 119.48 249.525 120.014 249.274C120.549 249.015 121.048 248.717 121.505 248.384C121.133 248.786 120.676 249.139 120.15 249.429C119.885 249.575 119.606 249.705 119.315 249.818C119.021 249.929 118.718 250.024 118.409 250.105C117.786 250.258 117.138 250.346 116.483 250.366C115.832 250.388 115.181 250.332 114.552 250.202Z" fill="#371B34"/>
<path d="M143.357 248.384C143.988 248.607 144.643 248.782 145.314 248.906C145.978 249.029 146.656 249.096 147.337 249.106C148.017 249.114 148.696 249.056 149.358 248.933C150.028 248.802 150.679 248.618 151.303 248.384C150.733 248.716 150.1 248.971 149.427 249.138C149.089 249.22 148.743 249.282 148.393 249.323C148.042 249.36 147.687 249.378 147.332 249.377C146.628 249.365 145.929 249.274 145.255 249.109C144.579 248.95 143.938 248.705 143.357 248.384Z" fill="#371B34"/>
<path d="M142.364 213.619L137.52 223.121L132.646 232.606L122.844 251.553C122.033 253.132 121.182 254.693 120.345 256.261L117.823 260.961L112.78 270.356L107.716 279.733L102.633 289.108L107.583 279.663L112.565 270.236L117.566 260.818L120.07 256.112C120.904 254.542 121.749 252.978 122.557 251.397L132.422 232.485L137.377 223.043L142.364 213.619Z" fill="#371B34"/>
<path d="M116.539 213.619C116.539 213.619 114.515 218.869 112.566 228.518L116.539 213.619Z" fill="#371B34"/>
<path d="M135.411 91.4478C136.016 91.5429 136.606 91.7101 137.167 91.9454C137.737 92.1783 138.282 92.4653 138.792 92.802C139.835 93.4877 140.705 94.3878 141.339 95.4366C141.964 96.4976 142.314 97.6873 142.359 98.9051C142.401 100.092 142.182 101.273 141.716 102.374C141.791 101.243 141.746 100.107 141.581 98.9851C141.408 97.9077 141.035 96.8688 140.479 95.9177C139.905 94.9714 139.174 94.1208 138.315 93.3992C137.426 92.6467 136.452 91.9921 135.411 91.4478Z" fill="#83455E"/>
<path d="M138.391 89.4612C138.995 89.5646 139.585 89.7465 140.147 90.0024C140.716 90.257 141.26 90.5706 141.77 90.9385C142.815 91.6851 143.686 92.6673 144.319 93.8126C144.945 94.9701 145.294 96.2679 145.339 97.5965C145.38 98.8908 145.161 100.18 144.697 101.38C144.772 100.147 144.727 98.9079 144.562 97.6837C144.389 96.5089 144.016 95.3761 143.46 94.3391C142.887 93.3062 142.156 92.3782 141.297 91.5917C140.407 90.77 139.433 90.0553 138.391 89.4612Z" fill="#83455E"/>
<path d="M139.384 104.36C139.384 104.36 138.949 110.236 135.474 110.32C135.474 110.32 134.593 104.334 139.384 104.36Z" fill="#371B34"/>
<path d="M139.384 104.36C139.384 104.36 139.723 110.217 142.292 110.32C142.296 110.32 143.075 104.335 139.384 104.36Z" fill="#371B34"/>
<path d="M140.398 104.36C140.458 104.877 140.522 105.384 140.6 105.886C140.643 106.135 140.683 106.385 140.734 106.628C140.782 106.872 140.839 107.113 140.906 107.349C141.024 107.819 141.204 108.255 141.435 108.634C141.677 109.009 142.007 109.25 142.364 109.314C142.175 109.345 141.984 109.318 141.804 109.235C141.62 109.146 141.451 109.004 141.308 108.818C141.03 108.441 140.817 107.98 140.687 107.469C140.555 106.972 140.466 106.456 140.421 105.93C140.371 105.41 140.364 104.883 140.398 104.36Z" fill="#83455E"/>
<path d="M140.406 104.36C140.467 104.755 140.532 105.148 140.608 105.538C140.68 105.923 140.776 106.304 140.894 106.679C141.002 107.05 141.17 107.402 141.391 107.723C141.5 107.885 141.642 108.022 141.81 108.126C141.978 108.229 142.167 108.298 142.364 108.326C142.151 108.35 141.936 108.315 141.743 108.226C141.548 108.134 141.375 108.003 141.236 107.841C140.968 107.52 140.769 107.149 140.652 106.753C140.531 106.365 140.451 105.967 140.411 105.565C140.368 105.164 140.366 104.761 140.406 104.36Z" fill="#83455E"/>
<path d="M137.366 104.36C137.408 104.76 137.408 105.163 137.366 105.564C137.326 105.966 137.246 106.364 137.125 106.752C137.008 107.149 136.809 107.519 136.54 107.841C136.401 108.003 136.228 108.134 136.032 108.226C135.839 108.315 135.623 108.35 135.411 108.326C135.608 108.298 135.797 108.229 135.965 108.125C136.133 108.022 136.276 107.884 136.385 107.723C136.606 107.402 136.774 107.049 136.882 106.678C137.001 106.303 137.097 105.922 137.17 105.537C137.24 105.155 137.305 104.762 137.366 104.36Z" fill="#83455E"/>
<path d="M138.358 104.36C138.411 104.884 138.4 105.412 138.324 105.933C138.257 106.459 138.124 106.975 137.926 107.47C137.731 107.981 137.413 108.442 136.996 108.818C136.781 109.005 136.527 109.147 136.25 109.235C135.98 109.318 135.693 109.345 135.411 109.314C135.947 109.25 136.441 109.009 136.805 108.634C137.151 108.256 137.421 107.821 137.599 107.351C137.698 107.115 137.783 106.875 137.854 106.63C137.933 106.388 137.993 106.138 138.055 105.889C138.173 105.383 138.269 104.876 138.358 104.36Z" fill="#83455E"/>
<path d="M136.041 118.266C136.041 118.266 137.235 122.184 140.377 120.448C140.377 120.448 138.824 122.227 135.411 123.232C135.411 123.232 136.037 122.198 136.04 120.23L136.041 118.266Z" fill="#371B34"/>
<path d="M92.7002 302.02C92.941 301.307 93.2757 300.638 93.6935 300.034C93.452 300.746 93.1173 301.416 92.7002 302.02Z" fill="#371B34"/>
<path d="M92.7002 300.034C92.8176 299.677 92.9617 299.332 93.1308 299.001C93.2932 298.666 93.4814 298.347 93.6935 298.047C93.5763 298.403 93.4323 298.748 93.2629 299.078C93.0997 299.413 92.9115 299.733 92.7002 300.034Z" fill="#371B34"/>
<path d="M91.707 298.047C92.1904 297.334 92.8598 296.665 93.6936 296.061C93.4587 296.418 93.1706 296.764 92.8324 297.095C92.5048 297.429 92.1285 297.747 91.707 298.047Z" fill="#371B34"/>
<path d="M141.341 116.483C141.23 116.681 141.065 116.853 140.861 116.984C140.657 117.115 140.419 117.202 140.168 117.237C139.979 117.261 139.789 117.273 139.598 117.273C139.5 117.273 139.385 117.273 139.384 117.163C139.382 117.053 139.51 117.05 139.601 117.051C140.041 117.059 140.452 116.996 140.801 116.737C140.936 116.632 141.047 116.505 141.127 116.363C141.167 116.296 141.225 116.261 141.309 116.289C141.393 116.318 141.377 116.396 141.341 116.483Z" fill="#371B34"/>
<path d="M141.37 111.473C141.368 111.495 141.362 111.516 141.354 111.534C141.346 111.553 141.336 111.569 141.324 111.581C141.312 111.594 141.298 111.602 141.284 111.607C141.269 111.611 141.254 111.611 141.24 111.606C140.939 111.56 140.735 111.769 140.59 112.148C140.557 112.236 140.514 112.361 140.425 112.281C140.337 112.201 140.391 112.097 140.425 112.003C140.594 111.556 140.839 111.299 141.19 111.314C141.271 111.315 141.359 111.314 141.37 111.473Z" fill="#371B34"/>
<path d="M136.404 111.473C136.409 111.495 136.42 111.516 136.436 111.534C136.452 111.553 136.473 111.569 136.497 111.581C136.521 111.594 136.548 111.602 136.577 111.607C136.606 111.611 136.636 111.611 136.665 111.606C137.266 111.56 137.675 111.769 137.964 112.148C138.03 112.236 138.117 112.361 138.294 112.281C138.471 112.201 138.363 112.097 138.294 112.003C137.957 111.556 137.466 111.299 136.764 111.314C136.606 111.315 136.431 111.314 136.404 111.473Z" fill="#371B34"/>
<path d="M163.3 84.6563C192.153 96.6001 214.436 108.979 213.076 112.306C220.677 93.7537 203.449 69.0318 174.598 57.0881C145.747 45.1443 116.193 50.5016 108.593 69.0543C109.956 65.7266 134.449 72.7125 163.3 84.6563Z" fill="#EB258B"/>
<path d="M164.357 84.3967C168.484 86.0854 172.478 87.7821 176.289 89.4612C177.791 79.5998 178.654 67.2164 179.115 58.502C177.997 57.9912 176.861 57.4989 175.705 57.0252C174.549 56.5515 173.394 56.1065 172.239 55.6902C166.388 62.1981 158.221 71.5943 152.296 79.6476C156.192 81.1212 160.229 82.7143 164.357 84.3967Z" fill="#F09A59"/>
<path d="M135.36 73.569C150.145 58.8018 167.959 55.3124 170.175 54.9268C164.394 52.8546 158.401 51.4448 152.31 50.7239C135.887 54.1397 123.498 61.8401 115.545 68.2397C120.1 68.9373 126.998 70.7996 135.36 73.569Z" fill="#F09A59"/>
<path d="M191.967 97.0409C199.782 100.985 206.014 104.558 209.906 107.34C208.684 97.0409 205.202 82.6898 195.879 68.51C191.002 64.6441 185.712 61.3434 180.108 58.6699C181.425 60.5384 191.733 75.8367 191.967 97.0409Z" fill="#F09A59"/>
<path d="M163.199 83.9629C134.433 72.0749 110.011 65.121 108.652 68.4359C107.293 71.7508 129.51 84.0666 158.279 95.953C187.047 107.839 211.467 114.795 212.826 111.48C214.185 108.165 191.966 95.8476 163.199 83.9629Z" fill="#7879F1"/>
<path d="M164.398 84.7412L138.415 147.886L139.684 148.409L165.667 85.2641L164.398 84.7412Z" fill="#F3FCFF"/>
<path d="M140.74 153.651C143.468 154.728 146.572 153.386 147.685 150.705L148.219 149.423C148.36 149.083 148.358 148.702 148.215 148.363C148.071 148.025 147.798 147.755 147.455 147.615C147.11 147.476 146.724 147.478 146.38 147.62C146.037 147.762 145.764 148.032 145.622 148.371L145.079 149.673C144.831 150.28 144.353 150.768 143.745 151.033C143.138 151.298 142.451 151.318 141.828 151.09C141.515 150.971 141.228 150.791 140.986 150.561C140.744 150.332 140.551 150.057 140.418 149.752C140.285 149.448 140.215 149.12 140.212 148.789C140.209 148.457 140.273 148.128 140.401 147.822L143.826 139.615C143.861 139.532 143.879 139.442 143.879 139.352C143.878 139.262 143.86 139.172 143.825 139.089C143.789 139.005 143.738 138.93 143.673 138.866C143.608 138.802 143.531 138.752 143.446 138.718L142.132 138.183C142.047 138.149 141.956 138.131 141.865 138.131C141.773 138.131 141.683 138.149 141.598 138.184C141.514 138.219 141.437 138.269 141.373 138.333C141.308 138.397 141.257 138.473 141.222 138.557L137.796 146.763C137.53 147.406 137.394 148.094 137.397 148.789C137.401 149.484 137.544 150.171 137.817 150.811C138.091 151.451 138.49 152.031 138.992 152.519C139.493 153.006 140.088 153.391 140.74 153.651Z" fill="#7879F1"/>
<path d="M167.541 142.309C167.009 142.255 148.77 142.805 148.77 142.805C148.172 142.726 147.602 142.628 147.06 142.513C146.67 141.625 145.859 140.564 144.192 139.667C143.294 139.183 142.288 139.061 141.267 139.153L141.098 139.17C139.58 139.34 138.056 139.963 136.866 140.575C134.837 140.561 133.068 140.678 131.759 140.529C129.131 140.231 129.836 141.725 130.003 142.025H129.698L122.369 142.367C120.89 142.65 119.388 142.798 117.881 142.808C115.408 142.808 105.266 146.931 105.266 146.931C103.811 149.543 105.266 151.563 105.266 151.563C108.138 156.955 131.832 147.857 131.832 147.857C134.723 147.369 136.044 146.579 136.783 145.869C140.997 147.421 149.27 149.031 149.27 149.031C149.27 149.031 158.999 152.126 167.514 153.788C176.028 155.45 174.369 147.821 173.152 146.384C172.36 145.452 172.998 146.401 167.541 142.309ZM148.781 142.806L151.637 143.062C150.653 143.005 149.689 142.927 148.781 142.806Z" fill="#944441"/>
<path d="M125.478 142.158C123.854 142.176 122.236 142.351 120.642 142.681C119.054 143.009 117.496 143.484 115.987 144.101C114.475 144.707 113.058 145.514 111.642 146.366C110.934 146.786 110.226 147.205 109.526 147.64C109.174 147.855 108.826 148.074 108.483 148.302C108.312 148.416 108.142 148.534 107.976 148.659C107.894 148.719 107.814 148.784 107.737 148.853C107.698 148.886 107.663 148.924 107.631 148.965C107.623 148.975 107.617 148.985 107.613 148.997C107.608 149.009 107.607 149.021 107.607 149.034C107.617 149.058 107.649 149.058 107.672 149.056C107.649 149.056 107.617 149.065 107.6 149.037C107.598 149.023 107.599 149.009 107.602 148.996C107.606 148.982 107.612 148.97 107.62 148.959C107.648 148.913 107.681 148.871 107.719 148.834C107.791 148.757 107.867 148.685 107.946 148.615C108.108 148.478 108.271 148.35 108.434 148.223C108.759 147.972 109.101 147.729 109.44 147.491C110.122 147.019 110.813 146.566 111.51 146.123C112.207 145.68 112.906 145.244 113.626 144.838C113.981 144.621 114.36 144.457 114.729 144.27C115.099 144.084 115.48 143.928 115.869 143.766C117.397 143.142 118.982 142.687 120.6 142.408C122.211 142.121 123.848 142.037 125.478 142.158Z" fill="#371B34"/>
<path d="M130.444 142.104C131.116 142.631 131.82 143.112 132.551 143.544C133.277 143.98 134.024 144.377 134.79 144.733C135.556 145.085 136.334 145.404 137.13 145.675C137.926 145.947 138.737 146.163 139.55 146.396C140.363 146.629 141.174 146.85 141.987 147.069L144.43 147.732C146.061 148.165 147.69 148.607 149.317 149.057C147.662 148.739 146.013 148.383 144.369 147.99C142.726 147.598 141.091 147.176 139.464 146.726C138.651 146.494 137.84 146.258 137.032 145.983C136.234 145.692 135.453 145.356 134.691 144.976C133.158 144.222 131.73 143.256 130.444 142.104Z" fill="#371B34"/>
<path d="M137.397 141.111C138.541 141.353 139.688 141.586 140.841 141.791C141.994 141.996 143.147 142.199 144.307 142.345C144.888 142.417 145.47 142.481 146.052 142.54C146.634 142.598 147.212 142.627 147.802 142.644L151.331 142.77H151.317C152.497 142.737 153.673 142.727 154.849 142.733C156.026 142.738 157.205 142.756 158.38 142.818C159.554 142.881 160.731 142.963 161.899 143.112C162.483 143.187 163.061 143.291 163.631 143.423C163.916 143.491 164.197 143.574 164.47 143.672C164.745 143.769 164.996 143.911 165.209 144.091C164.987 143.923 164.73 143.794 164.451 143.713C164.177 143.625 163.896 143.552 163.611 143.497C163.039 143.386 162.46 143.304 161.878 143.251C160.714 143.13 159.544 143.071 158.369 143.037C157.194 143.003 156.022 142.987 154.849 142.992C153.676 142.998 152.501 143.014 151.331 143.054H151.317L147.79 142.904C146.608 142.86 145.431 142.746 144.267 142.562C143.105 142.383 141.95 142.167 140.805 141.927C139.66 141.686 138.522 141.416 137.397 141.111Z" fill="#371B34"/>
</g>
</svg>
