<svg width="31" height="31" viewBox="0 0 31 31" fill="none" xmlns="http://www.w3.org/2000/svg">
<g clip-path="url(#clip0_1_438)">
<path d="M15.5 15.5C18.2625 15.5 20.5 13.2625 20.5 10.5C20.5 7.7375 18.2625 5.5 15.5 5.5C12.7375 5.5 10.5 7.7375 10.5 10.5C10.5 13.2625 12.7375 15.5 15.5 15.5ZM15.5 18C12.1625 18 5.5 19.675 5.5 23V24.25C5.5 24.9375 6.0625 25.5 6.75 25.5H24.25C24.9375 25.5 25.5 24.9375 25.5 24.25V23C25.5 19.675 18.8375 18 15.5 18Z" fill="#4D55CC"/>
</g>
<defs>
<clipPath id="clip0_1_438">
<rect width="30" height="30" fill="white" transform="translate(0.5 0.5)"/>
</clipPath>
</defs>
</svg>
