<svg width="21" height="23" viewBox="0 0 21 23" fill="none" xmlns="http://www.w3.org/2000/svg">
<path fill-rule="evenodd" clip-rule="evenodd" d="M10.5 7.75C8.42893 7.75 6.75 9.42893 6.75 11.5C6.75 13.5711 8.42893 15.25 10.5 15.25C12.5711 15.25 14.25 13.5711 14.25 11.5C14.25 9.42893 12.5711 7.75 10.5 7.75ZM8.25 11.5C8.25 10.2574 9.25736 9.25 10.5 9.25C11.7426 9.25 12.75 10.2574 12.75 11.5C12.75 12.7426 11.7426 13.75 10.5 13.75C9.25736 13.75 8.25 12.7426 8.25 11.5Z" fill="#00FFC9"/>
<path fill-rule="evenodd" clip-rule="evenodd" d="M10.5 0.75C9.79541 0.75 9.15185 0.943593 8.44858 1.27037C7.76808 1.58656 6.98039 2.05304 5.99457 2.63685L5.24148 3.08283C4.25533 3.66682 3.46771 4.13324 2.86076 4.57944C2.23315 5.04083 1.75177 5.51311 1.40334 6.13212C1.05548 6.75014 0.898411 7.41095 0.823055 8.19506C0.749985 8.95539 0.749992 9.88651 0.75 11.056V11.944C0.749992 13.1135 0.749985 14.0446 0.823055 14.8049C0.898411 15.5891 1.05548 16.2499 1.40334 16.8679C1.75177 17.4869 2.23315 17.9592 2.86076 18.4206C3.46771 18.8668 4.25533 19.3332 5.24148 19.9172L5.9946 20.3632C6.98038 20.947 7.7681 21.4135 8.44858 21.7296C9.15185 22.0564 9.79541 22.25 10.5 22.25C11.2046 22.25 11.8481 22.0564 12.5514 21.7296C13.2319 21.4134 14.0196 20.947 15.0054 20.3632L15.7585 19.9172C16.7446 19.3332 17.5323 18.8668 18.1392 18.4206C18.7669 17.9592 19.2482 17.4869 19.5967 16.8679C19.9445 16.2499 20.1016 15.5891 20.1769 14.8049C20.25 14.0446 20.25 13.1135 20.25 11.9441V11.056C20.25 9.88656 20.25 8.95538 20.1769 8.19506C20.1016 7.41095 19.9445 6.75014 19.5967 6.13212C19.2482 5.51311 18.7669 5.04083 18.1392 4.57944C17.5323 4.13324 16.7447 3.66683 15.7585 3.08285L15.0054 2.63685C14.0196 2.05303 13.2319 1.58656 12.5514 1.27037C11.8481 0.943592 11.2046 0.75 10.5 0.75ZM6.72524 3.94744C7.75238 3.33917 8.47606 2.91161 9.08065 2.63069C9.6702 2.35676 10.0907 2.25 10.5 2.25C10.9093 2.25 11.3298 2.35676 11.9193 2.63069C12.5239 2.91161 13.2476 3.33917 14.2748 3.94744L14.9609 4.35379C15.9879 4.96197 16.7109 5.39115 17.2508 5.788C17.7767 6.17467 18.081 6.49746 18.2895 6.86788C18.4986 7.23929 18.6199 7.6739 18.6838 8.33855C18.7492 9.01884 18.75 9.87802 18.75 11.0937V11.9063C18.75 13.122 18.7492 13.9812 18.6838 14.6614C18.6199 15.3261 18.4986 15.7607 18.2895 16.1321C18.081 16.5025 17.7767 16.8253 17.2508 17.212C16.7109 17.6089 15.9879 18.038 14.9609 18.6462L14.2748 19.0526C13.2476 19.6608 12.5239 20.0884 11.9193 20.3693C11.3298 20.6432 10.9093 20.75 10.5 20.75C10.0907 20.75 9.6702 20.6432 9.08065 20.3693C8.47606 20.0884 7.75238 19.6608 6.72524 19.0526L6.03909 18.6462C5.0121 18.038 4.28906 17.6089 3.74923 17.212C3.22326 16.8253 2.919 16.5025 2.7105 16.1321C2.50145 15.7607 2.38005 15.3261 2.31618 14.6614C2.2508 13.9812 2.25 13.122 2.25 11.9063V11.0937C2.25 9.87802 2.2508 9.01884 2.31618 8.33855C2.38005 7.6739 2.50145 7.23929 2.7105 6.86788C2.919 6.49746 3.22326 6.17467 3.74923 5.788C4.28906 5.39115 5.0121 4.96197 6.03909 4.35379L6.72524 3.94744Z" fill="#00FFC9"/>
</svg>
